<svg width="18" height="19" viewBox="0 0 18 19" fill="none" xmlns="http://www.w3.org/2000/svg">
<g clip-path="url(#clip0_92_108)">
<path fill-rule="evenodd" clip-rule="evenodd" d="M2.12042 1.32834C2.31727 1.13772 2.55364 0.989857 2.81387 0.894535C3.0741 0.799214 3.35225 0.758615 3.62988 0.775431C3.90751 0.792246 4.17829 0.866091 4.42427 0.992071C4.67025 1.11805 4.88581 1.29329 5.05667 1.50618L7.07605 4.02209C7.44617 4.4836 7.57667 5.08476 7.43042 5.65209L6.81505 8.04145C6.78323 8.1652 6.78495 8.29483 6.82004 8.41776C6.85512 8.54068 6.92239 8.65271 7.0153 8.74298L9.77942 11.4236C9.87261 11.5139 9.98833 11.5793 10.1153 11.6133C10.2423 11.6473 10.3761 11.6489 10.5039 11.6178L12.9665 11.0211C13.2552 10.9511 13.5566 10.9456 13.8477 11.0052C14.1389 11.0647 14.4123 11.1876 14.6473 11.3647L17.2415 13.322C18.1742 14.0257 18.2597 15.3623 17.4249 16.1707L16.2617 17.2988C15.4292 18.1062 14.1849 18.4608 13.025 18.0647C10.0564 17.0518 7.36098 15.4035 5.1388 13.2424C2.9105 11.0876 1.21098 8.474 0.166297 5.59536C-0.240953 4.4716 0.124672 3.26383 0.957172 2.45647L2.12042 1.32834Z" fill="#265182"/>
</g>
<defs>
<clipPath id="clip0_92_108">
<rect width="18" height="17.4565" fill="white" transform="translate(0 0.770752)"/>
</clipPath>
</defs>
</svg>
